<?xml version="1.0" encoding="UTF-8"?>
<svg version="1.1" xmlns="http://www.w3.org/2000/svg" width="237" height="239">
<path d="M0 0 C7.50840085 3.99310409 11.38757062 13.06871137 15.375 20.125 C16.37405513 21.87506899 17.37311921 23.62513295 18.3727417 25.37487793 C19.40488121 27.18316424 20.43453968 28.99284619 21.46386719 30.80273438 C24.61697485 36.34156236 27.81069925 41.85696345 31 47.375 C32.25018814 49.54155811 33.5001876 51.70822511 34.75 53.875 C35.36875 54.9475 35.9875 56.02 36.625 57.125 C43.5 69.04166667 50.375 80.95833333 57.25 92.875 C57.8689917 93.94790283 58.4879834 95.02080566 59.12573242 96.1262207 C60.3733474 98.28878583 61.62090616 100.45138339 62.8684082 102.61401367 C66.02943449 108.09370371 69.19149309 113.57279358 72.35546875 119.05078125 C75.47502925 124.45245492 78.5917096 129.85577855 81.70556641 135.26074219 C82.9050822 137.34251408 84.10528128 139.42389241 85.30615234 141.50488281 C86.99856949 144.43915369 88.68732035 147.37550238 90.375 150.3125 C90.88119873 151.1888208 91.38739746 152.0651416 91.90893555 152.96801758 C92.36953369 153.77134521 92.83013184 154.57467285 93.3046875 155.40234375 C93.70671387 156.10093506 94.10874023 156.79952637 94.52294922 157.51928711 C97.32623433 162.84356749 97.13260098 168.51785914 96.5 174.375 C93.61562583 182.85928111 85.4002882 186.99805611 77.8359375 190.83203125 C76.18706261 191.62715795 74.53317356 192.41195159 72.875 193.1875 C71.97402588 193.6112793 71.07305176 194.03505859 70.14477539 194.47167969 C53.43188061 202.21166195 36.28881744 208.60268144 18.5 213.375 C17.30246094 213.7153125 16.10492188 214.055625 14.87109375 214.40625 C-27.20234417 224.74511529 -71.83813322 205.33053278 -108.26928711 185.77075195 C-112.69194914 183.00350244 -115.47093474 179.16151292 -117.5 174.375 C-119.27455146 164.2302191 -115.44103063 156.85177955 -110.5 148.375 C-110.01692383 147.53453125 -109.53384766 146.6940625 -109.03613281 145.828125 C-106.15498194 140.8192734 -103.2423765 135.82975442 -100.30859375 130.8515625 C-96.52101042 124.4232648 -92.78563892 117.96578627 -89.0625 111.5 C-88.44052734 110.42073242 -87.81855469 109.34146484 -87.17773438 108.22949219 C-85.9153306 106.03885034 -84.65312377 103.848095 -83.39111328 101.65722656 C-80.26319852 96.22840058 -77.13141552 90.80180719 -74 85.375 C-72.74998121 83.20834417 -71.49998122 81.0416775 -70.25 78.875 C-66.5 72.375 -66.5 72.375 -62.75 65.875 C-62.1307666 64.80161377 -61.5115332 63.72822754 -60.87353516 62.62231445 C-59.62858718 60.46450197 -58.3834711 58.30678647 -57.13818359 56.14916992 C-53.93447349 50.59783408 -50.7340637 45.04463459 -47.5390625 39.48828125 C-44.41252007 34.051978 -41.27515055 28.6220609 -38.13037109 23.19628906 C-36.6674119 20.6646993 -35.21707929 18.12635439 -33.76953125 15.5859375 C-32.99290991 14.24437321 -32.21563389 12.90318755 -31.4375 11.5625 C-30.80714844 10.46292969 -30.17679687 9.36335938 -29.52734375 8.23046875 C-22.61262816 -1.50875495 -11.23059396 -5.14378349 0 0 Z " fill="#19E65E" transform="translate(125.5,22.625)"/>
<path d="M0 0 C1.55859375 2.15625 1.55859375 2.15625 1.48828125 4.703125 C-1.53958252 12.69261427 -11.06400967 16.40313146 -18.33154297 19.80395508 C-56.24402479 36.55288859 -98.86828408 36.26699942 -137.44140625 22.15625 C-146.45271118 18.55028275 -156.47242635 14.08740837 -162.44140625 6.15625 C-163.12890625 2.96875 -163.12890625 2.96875 -161.44140625 0.15625 C-151.64195878 -6.91220391 -138.42486051 -8.23207521 -126.75390625 -9.46875 C-125.03312866 -9.65594604 -125.03312866 -9.65594604 -123.27758789 -9.84692383 C-120.00017415 -10.19452482 -116.72172504 -10.52484486 -113.44140625 -10.84375 C-112.67731445 -10.91867676 -111.91322266 -10.99360352 -111.12597656 -11.07080078 C-81.01200622 -13.84270527 -25.11749338 -18.968731 0 0 Z " fill="#FDFEFD" transform="translate(195.44140625,194.84375)"/>
</svg>
